<svg version="1.2" xmlns="http://www.w3.org/2000/svg" viewBox="0 0 500 311" role="img" aria-label="Logotipo de Atmaia Yoga" focusable="false" fill="currentColor">
<style>
		.s0 { opacity: .99;fill: currentColor } 
	</style>
<path id="Path 0" fill-rule="evenodd" class="s0" d="m199.5 25.07c7.41-0.05 16.66 0.55 21.5 1.39 4.68 0.81 11.88 2.63 16 4.04 4.13 1.41 10.88 4.23 15 6.28 4.13 2.04 10.99 6.3 15.25 9.47 4.26 3.16 10.56 8.57 14 12.03 3.44 3.45 8.81 10.09 11.94 14.75 3.13 4.66 7.58 12.52 9.89 17.47 2.31 4.95 5.3 13.28 6.63 18.5 1.52 5.93 2.64 13.83 2.99 21 0.48 9.69 0.24 12.84-1.56 20-1.17 4.68-3.8 11.88-5.84 16-2.05 4.13-6.23 10.65-9.3 14.5-3.07 3.85-8.27 9.21-11.54 11.9-3.28 2.7-9.11 6.4-12.96 8.22-3.85 1.83-9.93 4.07-13.5 4.97-4.73 1.2-9.09 1.52-16 1.16-7.01-0.37-11.34-1.2-16.5-3.18-3.85-1.47-9.03-4.27-11.5-6.21-2.47-1.94-6.22-5.85-8.32-8.69-2.1-2.84-4.52-7.64-5.38-10.67-1.06-3.74-1.42-8.22-1.14-14 0.34-7.16 0.89-9.37 3.45-14 2.12-3.82 4.71-6.64 8.47-9.22 3.65-2.51 7.21-4.02 10.92-4.61 3.12-0.5 7.45-0.51 10-0.02 2.47 0.47 6.3 2.11 8.5 3.64 2.7 1.88 4.49 4.15 5.5 7 1.33 3.74 1.33 4.68 0 8.43-0.85 2.39-2.8 5.14-4.5 6.35-2.78 1.99-2.85 2.19-1 2.77 1.1 0.35 3.57 0.63 5.5 0.62 1.93 0 5.3-0.83 7.5-1.85 2.2-1.01 5.16-2.91 6.57-4.22 1.42-1.32 3.38-3.96 4.38-5.89 0.99-1.93 2.12-5.53 2.51-8 0.4-2.47 0.32-7.43-0.16-11-0.52-3.82-2-8.49-3.59-11.32-1.49-2.65-4.51-6.23-6.71-7.95-2.2-1.73-6.25-4.16-9-5.41-2.75-1.26-8.6-2.81-13-3.46-6.76-0.99-9.24-0.92-16 0.46-4.4 0.9-11.15 3.2-15 5.1-3.85 1.9-10.04 5.96-13.75 9.02-3.71 3.06-8.82 8.37-11.36 11.81-2.53 3.44-5.63 8.28-6.88 10.75-1.25 2.47-3 6.64-3.89 9.25-0.89 2.61-2.07 7.9-2.62 11.75-0.68 4.75-0.66 9.65 0.05 15.25 0.57 4.54 1.97 11.4 3.1 15.25 1.13 3.85 3.5 10.15 5.26 14 1.77 3.85 5.5 10.38 8.29 14.5 2.79 4.13 7.96 10.88 11.48 15 3.53 4.13 10.22 10.37 14.87 13.87 4.65 3.51 13.4 8.78 19.45 11.72 6.05 2.93 15.05 6.56 20 8.07 8.28 2.51 10.4 2.73 26.5 2.78 14.87 0.05 19.08-0.29 28-2.29 5.77-1.29 14.55-3.7 19.5-5.36 4.95-1.65 13.73-5.32 19.5-8.16 5.77-2.83 14.32-7.7 19-10.81 4.68-3.11 12.74-9.64 17.92-14.49 5.18-4.86 12.83-12.88 17.01-17.83 4.17-4.95 10.11-12.82 13.21-17.5 3.09-4.68 8.13-13.22 11.19-19 3.06-5.78 7.57-15.22 10.04-21 2.46-5.78 6.73-17.25 9.48-25.5 2.75-8.25 5.97-18.83 7.16-23.5 1.19-4.67 2.4-8.72 2.69-9 0.29-0.28 0.22 1.53-0.16 4-0.39 2.47-1.83 9.67-3.21 16-1.38 6.33-4.33 17.13-6.55 24-2.23 6.88-6.37 17.68-9.19 24-2.82 6.32-7.3 15.1-9.94 19.5-2.65 4.4-8.26 12.91-12.48 18.9-4.22 6-10.62 14.32-14.23 18.5-3.61 4.18-11.26 11.39-17 16.03-5.74 4.64-14.04 10.77-18.44 13.63-4.4 2.86-11.82 7.11-16.5 9.44-4.68 2.34-13 5.74-18.5 7.57-5.5 1.82-14.73 4.34-20.5 5.59-8.87 1.92-13.44 2.27-29.5 2.26-17.54-0.02-19.77-0.23-29-2.74-5.5-1.5-13.82-4.42-18.5-6.49-4.68-2.06-12.08-6.22-16.46-9.22-4.38-3.01-11.38-8.84-15.56-12.97-4.18-4.12-9.42-10.2-11.65-13.5-2.24-3.3-6.09-10.05-8.57-15-2.48-4.95-5.71-12.37-7.19-16.5-1.47-4.12-3.33-11.32-4.13-16-0.8-4.68-1.45-12.1-1.43-16.5 0.01-4.4 0.64-10.93 1.38-14.5 0.75-3.57 2.9-9.87 4.78-14 1.88-4.12 5.88-11.05 8.88-15.4 3-4.34 8.04-10.3 11.2-13.25 3.73-3.47 8.99-6.9 15-9.77 5.09-2.42 11.61-4.9 14.5-5.5 2.89-0.59 8.29-1.08 12-1.09 3.71 0 9.34 0.68 12.5 1.5 3.16 0.83 8.34 2.8 11.5 4.38 3.16 1.58 7.89 4.96 10.5 7.5 2.61 2.55 5.87 6.99 7.24 9.88 1.37 2.89 2.94 8.06 3.5 11.5 0.68 4.2 0.68 8.3 0 12.5-0.55 3.44-2.01 8.25-3.25 10.68-1.23 2.44-4.04 5.94-6.24 7.78-2.2 1.84-6.25 4.06-9 4.95-3.1 0.99-7.09 1.44-10.5 1.19-3.03-0.23-7.3-1.34-9.5-2.47-2.2-1.13-5.03-3.59-6.28-5.47-1.25-1.87-2.26-4.87-2.25-6.66 0.02-1.79 0.69-4.71 1.49-6.5 0.81-1.79 2.72-3.92 7.04-6.24l-5.5-0.29c-4.24-0.22-6.65 0.28-10.5 2.19-2.75 1.36-6.01 3.85-7.25 5.53-1.24 1.68-2.93 4.97-3.77 7.31-0.84 2.34-1.52 6.72-1.51 9.75 0 3.03 0.59 7.53 1.3 10 0.72 2.47 2.78 6.53 4.58 9 1.8 2.47 5.38 5.98 7.96 7.79 2.58 1.8 7.16 4.2 10.19 5.33 3.03 1.13 8.65 2.29 12.5 2.57 4.7 0.35 9.3-0.03 14-1.15 3.85-0.91 10.6-3.53 15-5.81 5.88-3.05 10.28-6.42 16.59-12.69 6.99-6.95 9.36-10.13 12.69-17.04 2.25-4.68 4.78-11.2 5.64-14.5 0.86-3.34 1.55-10.21 1.55-15.5 0.01-5.93-0.7-12.5-1.9-17.5-1.05-4.4-3.34-11.6-5.08-16-1.75-4.4-4.77-10.7-6.71-14-1.94-3.3-5.44-8.47-7.78-11.5-2.34-3.03-8.47-9.57-13.63-14.54-5.15-4.96-12.74-11.13-16.87-13.69-4.12-2.56-12.22-6.55-18-8.86-5.78-2.3-14.55-5.02-19.5-6.04-5.43-1.11-13.27-1.85-19.75-1.86-6.21 0-15.5 0.81-22 1.94-6.19 1.07-15.19 3.1-20 4.5-4.81 1.4-12.91 4.35-18 6.55-5.09 2.21-12.79 6.14-17.11 8.75-4.32 2.61-12.42 8.4-18 12.86-5.58 4.47-13.4 11.55-17.39 15.75-3.99 4.2-10 11.35-13.36 15.89-3.36 4.54-8.62 12.08-11.69 16.75-3.07 4.67-7.91 13.22-10.78 19-2.86 5.78-7.23 15.68-9.73 22-2.49 6.32-6.08 16.68-7.98 23-1.89 6.32-4.24 14.87-5.21 19-0.96 4.12-2.2 7.95-2.75 8.5q-1 0.99-0.36-4c0.34-2.75 1.75-9.95 3.11-16 1.36-6.05 4.37-16.85 6.68-24 2.55-7.87 7.39-19.31 12.29-29 4.44-8.8 10.7-20.05 13.92-25 3.21-4.95 9.11-13.05 13.11-18 4-4.95 11.04-12.62 15.64-17.05 4.6-4.42 11.74-10.55 15.86-13.6 4.13-3.06 10.65-7.49 14.5-9.86 3.85-2.36 10.6-6.04 15-8.17 4.4-2.14 12.95-5.46 19-7.38 6.05-1.92 15.95-4.34 22-5.38 6.61-1.14 16.19-1.93 24-1.99zm30.48 127.68c-0.01 2.06 0.56 4.56 1.25 5.55 0.79 1.11 2.61 1.83 4.77 1.88 2.57 0.06 3.97-0.55 5.29-2.3 1.1-1.45 1.78-4.04 1.75-6.63-0.03-3.22-0.52-4.49-2.04-5.25-1.1-0.55-3.12-1-4.5-1-1.37 0-3.4 0.9-4.5 2-1.28 1.28-2.01 3.35-2.02 5.75zm218.42-102.25l1.3 5c0.71 2.75 1.97 6.01 2.8 7.25 0.84 1.27 3.36 2.74 5.75 3.36 2.34 0.62 4.81 1.29 5.5 1.5 0.69 0.22 1.25 0.84 1.25 1.39 0 0.55-0.79 1-1.75 1.01-0.96 0-3.44 0.45-5.5 1-2.06 0.54-4.43 2-5.25 3.24-0.83 1.24-2.1 4.5-4.16 12.25l-0.77-4c-0.42-2.2-1.4-5.24-2.17-6.75-0.77-1.51-2.97-3.43-4.9-4.25-1.92-0.83-4.62-1.5-6-1.5-1.37 0-2.73-0.45-3-1-0.27-0.55 0.29-1.19 1.25-1.43 0.96-0.23 3.1-0.67 4.75-0.97 1.65-0.31 4.24-1.47 5.75-2.58 2.06-1.51 3.05-3.46 3.95-7.77z"/>
</svg>