<?xml version="1.0" standalone="no"?>
<!DOCTYPE svg PUBLIC "-//W3C//DTD SVG 20010904//EN"
 "http://www.w3.org/TR/2001/REC-SVG-20010904/DTD/svg10.dtd">
<svg version="1.0" xmlns="http://www.w3.org/2000/svg"
 width="300.000000pt" height="187.000000pt" viewBox="0 0 300.000000 187.000000"
 preserveAspectRatio="xMidYMid meet">
<metadata>
Created by potrace 1.10, written by Peter Selinger 2001-2011
</metadata>
<g transform="translate(0.000000,187.000000) scale(0.100000,-0.100000)"
fill="#000000" stroke="none">
<path d="M1095 1713 c-66 -9 -188 -44 -258 -73 -325 -135 -595 -500 -681 -920
-17 -82 -14 -107 4 -38 148 556 410 868 828 984 89 25 273 30 352 9 302 -79
528 -365 508 -644 -14 -188 -177 -357 -355 -369 -111 -8 -200 37 -239 121 -29
62 -30 108 -5 164 14 30 31 48 60 62 43 23 86 27 96 11 3 -5 2 -10 -4 -10 -20
0 -41 -33 -41 -65 0 -63 84 -108 157 -85 173 56 156 321 -25 397 -268 112
-577 -176 -524 -487 60 -348 325 -580 663 -580 259 0 487 97 680 289 174 173
291 386 354 640 35 145 36 151 26 151 -5 0 -12 -21 -16 -47 -12 -80 -81 -277
-134 -384 -91 -180 -214 -337 -341 -433 -67 -50 -213 -127 -285 -149 -74 -24
-210 -47 -272 -47 -67 0 -181 25 -250 55 -229 102 -403 347 -405 573 -2 208
184 402 385 402 167 0 278 -138 222 -277 -21 -53 -69 -83 -131 -83 -49 1 -49
1 -22 16 52 28 49 101 -5 134 -70 43 -163 17 -215 -60 -21 -31 -23 -44 -20
-112 4 -101 35 -148 128 -196 61 -32 70 -34 150 -30 69 2 96 8 145 32 117 57
216 191 245 330 21 102 -17 275 -86 393 -136 233 -413 364 -689 326z m363
-736 c10 -51 -31 -94 -63 -67 -18 15 -20 61 -3 78 18 18 62 11 66 -11z"/>
<path d="M2681 1523 c-10 -38 -16 -44 -54 -54 l-42 -12 32 -7 c42 -10 63 -27
63 -54 0 -11 5 -28 10 -36 7 -11 10 -8 10 16 0 41 19 64 60 73 l35 8 -42 12
c-43 12 -45 14 -56 76 -2 14 -7 7 -16 -22z"/>
</g>
</svg>
